<svg width="1200" height="296" viewBox="0 0 1200 296" fill="none" xmlns="http://www.w3.org/2000/svg">
<path fill-rule="evenodd" clip-rule="evenodd" d="M1200 87.5556L1150 82.5926C1100 77.6296 1000 67.7037 900 62.7407C800 57.7778 700 57.7778 600 87.5556C500 117.333 400 176.889 300 171.926C200 166.963 100 97.4815 50 62.7407L0 28V296H50C100 296 200 296 300 296C400 296 500 296 600 296C700 296 800 296 900 296C1000 296 1100 296 1150 296H1200V87.5556Z" fill="white" fill-opacity="0.8"/>
<path fill-rule="evenodd" clip-rule="evenodd" d="M0 83.2L50 78.1667C100 73.1333 200 63.0667 300 73.1333C400 83.2 500 113.4 600 133.533C700 153.667 800 163.733 900 148.633C1000 133.533 1100 93.2667 1150 73.1333L1200 53V204H1150C1100 204 1000 204 900 204C800 204 700 204 600 204C500 204 400 204 300 204C200 204 100 204 50 204H0V83.2Z" fill="white"/>
<path fill-rule="evenodd" clip-rule="evenodd" d="M0 152.922L40 158.884C80 164.846 160 176.769 240 140.999C320 105.23 400 21.7679 480 3.88324C560 -14.0015 640 33.6911 720 69.4605C800 105.23 880 129.076 960 135.038C1040 140.999 1120 129.076 1160 123.115L1200 117.153V296H1160C1120 296 1040 296 960 296C880 296 800 296 720 296C640 296 560 296 480 296C400 296 320 296 240 296C160 296 80 296 40 296H0V152.922Z" fill="white" fill-opacity="0.6"/>
<rect y="162" width="1200" height="134" fill="white"/>
</svg>
